<svg width="352.8125px" height="97.60000610351562px" xmlns="http://www.w3.org/2000/svg" viewBox="73.59375 26.199996948242188 352.8125 97.60000610351562" style="background: rgba(0, 0, 0, 0);" preserveAspectRatio="xMidYMid"><defs><filter id="editing-extrude-glow"><feFlood flood-color="#333333" result="flood-1"></feFlood><feMorphology operator="erode" radius="1" in="SourceAlpha" result="erode"></feMorphology><feComposite operator="in" in="flood-1" in2="erode" result="comp1"></feComposite><feConvolveMatrix order="3,3" divisor="1" in="comp1" result="convolve" kernelMatrix="0 0 0 1 1 1 0 0 0"></feConvolveMatrix><feOffset dx="-3" dy="0" in="convolve" result="extrude"></feOffset><feComposite operator="in" in="flood-1" in2="extrude" result="comp-extrude"></feComposite><feFlood flood-color="#000000" result="flood-2"></feFlood><feComposite operator="in" in="flood-2" in2="SourceAlpha" result="comp2"></feComposite><feMorphology operator="dilate" radius="1" in="comp2" result="dilate"></feMorphology><feOffset dx="-4.5" dy="0" in="dilate" result="offset"></feOffset><feGaussianBlur in="offset" stdDeviation="5.8" result="blur"></feGaussianBlur><feComponentTransfer in="blur" result="shadow"><feFuncA type="linear" slope="0.8" intercept="-0.2"></feFuncA></feComponentTransfer><feMerge><feMergeNode in="shadow"></feMergeNode><feMergeNode in="comp-extrude"></feMergeNode><feMergeNode in="SourceGraphic"></feMergeNode></feMerge></filter></defs><g filter="url(#editing-extrude-glow)"><g transform="translate(128.0858673080802, 93.3749942779541)"><path d="M19.94-22.64L19.94-22.64L19.94-22.64Q20.68-24.11 20.68-25.48L20.68-25.48L20.68-25.48Q20.68-26.85 20.53-27.61L20.53-27.61L20.53-27.61Q20.38-28.37 20.04-28.96L20.04-28.96L20.04-28.96Q19.31-30.23 17.84-30.23L17.84-30.23L17.84-30.23Q16.02-30.23 14.55-28.91L14.55-28.91L14.55-28.91Q12.99-27.54 12.99-25.38L12.99-25.38L12.99-25.38Q12.99-24.01 13.94-22.96L13.94-22.96L13.94-22.96Q14.90-21.90 16.37-20.92L16.37-20.92L16.37-20.92Q17.84-19.94 19.50-18.96L19.50-18.96L19.50-18.96Q21.17-17.98 22.64-16.81L22.64-16.81L22.64-16.81Q26.02-14.11 26.02-10.49L26.02-10.49L26.02-10.49Q26.02-8.04 24.72-5.95L24.72-5.95L24.72-5.95Q23.42-3.87 21.27-2.35L21.27-2.35L21.27-2.35Q16.56 0.98 10.34 0.98L10.34 0.98L10.34 0.98Q5.29 0.98 2.70-0.66L2.70-0.66L2.70-0.66Q0.10-2.30 0.10-4.80L0.10-4.80L0.10-4.80Q0.10-9.26 3.58-10.39L3.58-10.39L3.58-10.39Q4.56-10.73 6.05-10.73L6.05-10.73L6.05-10.73Q7.55-10.73 9.26-10.09L9.26-10.09L9.26-10.09Q8.48-8.09 8.48-6.27L8.48-6.27L8.48-6.27Q8.48-2.35 11.27-2.35L11.27-2.35L11.27-2.35Q13.08-2.35 14.58-3.68L14.58-3.68L14.58-3.68Q16.07-5.00 16.07-6.49L16.07-6.49L16.07-6.49Q16.07-7.99 15.12-9.06L15.12-9.06L15.12-9.06Q14.16-10.14 12.74-11.00L12.74-11.00L12.74-11.00Q11.32-11.86 9.68-12.69L9.68-12.69L9.68-12.69Q8.04-13.52 6.62-14.70L6.62-14.70L6.62-14.70Q3.28-17.39 3.28-21.71L3.28-21.71L3.28-21.71Q3.28-24.50 4.66-26.68L4.66-26.68L4.66-26.68Q6.03-28.86 8.23-30.33L8.23-30.33L8.23-30.33Q12.64-33.32 18.06-33.32L18.06-33.32L18.06-33.32Q23.47-33.32 26.09-31.70L26.09-31.70L26.09-31.70Q28.71-30.09 28.71-27.34L28.71-27.34L28.71-27.34Q28.71-24.94 26.85-23.42L26.85-23.42L26.85-23.42Q25.23-22.15 23.28-22.15L23.28-22.15L23.28-22.15Q21.32-22.15 19.94-22.64ZM54.39-5.44L54.39-5.44L54.39-5.44Q54.39-3.28 56.59-2.65L56.59-2.65L56.59-2.65Q56.06-0.83 53.95 0.15L53.95 0.15L53.95 0.15Q52.19 0.98 50.25 0.98L50.25 0.98L50.25 0.98Q48.31 0.98 47.31 0.47L47.31 0.47L47.31 0.47Q46.30-0.05 45.77-0.88L45.77-0.88L45.77-0.88Q44.88-2.16 44.88-4.56L44.88-4.56L44.88-4.56Q44.88-5.98 45.67-9.90L45.67-9.90L46.35-13.62L46.35-13.62Q47.19-17.89 47.19-19.45L47.19-19.45L47.19-19.45Q47.19-22.20 45.67-22.20L45.67-22.20L45.67-22.20Q43.76-22.20 42.53-19.40L42.53-19.40L42.53-19.40Q42.04-18.33 41.70-16.71L41.70-16.71L38.37 0L28.52 0.98L35.43-34.30L45.28-35.28L44.88-33.32L44.88-33.32Q43.51-25.77 42.34-23.23L42.34-23.23L42.34-23.23Q45.08-25.97 50.13-25.97L50.13-25.97L50.13-25.97Q55.47-25.97 56.45-22.44L56.45-22.44L56.45-22.44Q56.79-21.32 56.79-20.34L56.79-20.34L56.79-20.34Q56.79-19.36 56.72-18.60L56.72-18.60L56.72-18.60Q56.64-17.84 56.40-16.46L56.40-16.46L55.76-12.94L54.64-7.40L54.64-7.40Q54.39-6.27 54.39-5.44ZM75.90-13.77L75.90-13.77L75.90-13.77Q77.67-16.91 77.67-20.09L77.67-20.09L77.67-20.09Q77.67-22.20 76.15-22.20L76.15-22.20L76.15-22.20Q74.97-22.20 73.75-20.19L73.75-20.19L73.75-20.19Q72.47-18.18 72.08-15.58L72.08-15.58L69.53 0L59.39 0.98L64.39-24.99L72.47-25.97L71.59-21.02L71.59-21.02Q73.99-25.97 79.38-25.97L79.38-25.97L79.38-25.97Q82.22-25.97 83.77-24.50L83.77-24.50L83.77-24.50Q85.31-23.03 85.31-20.02L85.31-20.02L85.31-20.02Q85.31-17.00 83.32-15.09L83.32-15.09L83.32-15.09Q81.34-13.18 77.96-13.18L77.96-13.18L77.96-13.18Q76.49-13.18 75.90-13.77ZM97.85-2.70L97.85-2.70L97.85-2.70Q96.33 0.98 91.48 0.98L91.48 0.98L91.48 0.98Q88.98 0.98 87.42-0.73L87.42-0.73L87.42-0.73Q86.09-2.25 86.09-3.77L86.09-3.77L86.09-3.77Q86.09-7.74 87.91-15.48L87.91-15.48L89.72-24.99L99.67-25.97L96.68-10.49L96.68-10.49Q95.84-6.86 95.84-5.59L95.84-5.59L95.84-5.59Q95.84-2.79 97.85-2.70ZM90.60-31.80L90.60-31.80L90.60-31.80Q90.60-33.71 92.19-34.74L92.19-34.74L92.19-34.74Q93.79-35.77 96.09-35.77L96.09-35.77L96.09-35.77Q98.39-35.77 99.79-34.74L99.79-34.74L99.79-34.74Q101.19-33.71 101.19-31.80L101.19-31.80L101.19-31.80Q101.19-29.89 99.64-28.91L99.64-28.91L99.64-28.91Q98.10-27.93 95.80-27.93L95.80-27.93L95.80-27.93Q93.49-27.93 92.05-28.91L92.05-28.91L92.05-28.91Q90.60-29.89 90.60-31.80ZM117.16 0L111.77 0L117.65-32.34L128.18-32.34L135.83-10.09L139.89-32.34L145.33-32.29L139.36 0L128.13 0L121.08-21.41L117.16 0ZM158.32-2.70L158.32-2.70L158.32-2.70Q156.80 0.98 151.95 0.98L151.95 0.98L151.95 0.98Q149.45 0.98 147.88-0.73L147.88-0.73L147.88-0.73Q146.56-2.25 146.56-3.77L146.56-3.77L146.56-3.77Q146.56-7.74 148.37-15.48L148.37-15.48L150.19-24.99L160.13-25.97L157.14-10.49L157.14-10.49Q156.31-6.86 156.31-5.59L156.31-5.59L156.31-5.59Q156.31-2.79 158.32-2.70ZM151.07-31.80L151.07-31.80L151.07-31.80Q151.07-33.71 152.66-34.74L152.66-34.74L152.66-34.74Q154.25-35.77 156.56-35.77L156.56-35.77L156.56-35.77Q158.86-35.77 160.25-34.74L160.25-34.74L160.25-34.74Q161.65-33.71 161.65-31.80L161.65-31.80L161.65-31.80Q161.65-29.89 160.11-28.91L160.11-28.91L160.11-28.91Q158.56-27.93 156.26-27.93L156.26-27.93L156.26-27.93Q153.96-27.93 152.51-28.91L152.51-28.91L152.51-28.91Q151.07-29.89 151.07-31.80ZM180.27-24.16L180.27-24.16L180.27-24.16Q181.89-25.97 184.68-25.97L184.68-25.97L184.68-25.97Q186.40-25.97 187.72-25.04L187.72-25.04L187.72-25.04Q189.04-24.11 189.04-22.37L189.04-22.37L189.04-22.37Q189.04-20.63 188.50-18.77L188.50-18.77L188.50-18.77Q187.96-16.91 187.13-14.99L187.13-14.99L187.13-14.99Q185.47-11.27 183.16-8.18L183.16-8.18L183.16-8.18Q179.93-3.72 176.82-1.37L176.82-1.37L176.82-1.37Q173.71 0.98 170.32 0.98L170.32 0.98L170.32 0.98Q167.58 0.98 165.91 0.34L165.91 0.34L165.91 0.34Q165.62-9.95 165.25-13.62L165.25-13.62L165.25-13.62Q164.89-17.30 164.59-19.31L164.59-19.31L164.59-19.31Q164.10-23.23 162.63-24.16L162.63-24.16L162.63-24.16Q163.76-25.14 164.86-25.55L164.86-25.55L164.86-25.55Q165.96-25.97 168.24-25.97L168.24-25.97L168.24-25.97Q170.52-25.97 172.14-24.18L172.14-24.18L172.14-24.18Q173.75-22.39 174.07-19.23L174.07-19.23L174.07-19.23Q174.39-16.07 174.39-12.25L174.39-12.25L174.39-12.25Q174.39-8.43 174.10-3.82L174.10-3.82L174.10-3.82Q175.62-4.90 177.23-8.18L177.23-8.18L177.23-8.18Q179.44-12.74 180.22-18.23L180.22-18.23L180.22-18.23Q180.47-19.89 180.47-21.66L180.47-21.66L180.47-21.66Q180.47-23.42 180.27-24.16ZM192.50-1.47L192.50-1.47L192.50-1.47Q191.34-2.74 190.83-4.75L190.83-4.75L190.83-4.75Q190.32-6.76 190.32-10.04L190.32-10.04L190.32-10.04Q190.32-13.33 191.44-16.32L191.44-16.32L191.44-16.32Q192.57-19.31 194.63-21.46L194.63-21.46L194.63-21.46Q198.84-25.97 205.80-25.97L205.80-25.97L205.80-25.97Q208.30-25.97 210.11-25.14L210.11-25.14L218.49-25.97L214.87-6.86L214.87-6.86Q214.72-6.27 214.72-5.19L214.72-5.19L214.72-5.19Q214.72-4.12 215.38-3.43L215.38-3.43L215.38-3.43Q216.04-2.74 217.02-2.65L217.02-2.65L217.02-2.65Q216.53-0.98 214.74 0L214.74 0L214.74 0Q212.95 0.98 210.95 0.98L210.95 0.98L210.95 0.98Q208.94 0.98 207.59 0.22L207.59 0.22L207.59 0.22Q206.24-0.54 205.85-1.81L205.85-1.81L205.85-1.81Q205.06-0.59 203.40 0.20L203.40 0.20L203.40 0.20Q201.73 0.98 199.50 0.98L199.50 0.98L199.50 0.98Q197.27 0.98 195.46 0.39L195.46 0.39L195.46 0.39Q193.65-0.20 192.50-1.47ZM202.84-21.36L202.84-21.36L202.84-21.36Q202.27-20.48 201.78-18.99L201.78-18.99L201.78-18.99Q201.29-17.49 200.48-13.50L200.48-13.50L200.48-13.50Q199.68-9.51 199.68-6.66L199.68-6.66L199.68-6.66Q199.68-3.82 200.12-2.99L200.12-2.99L200.12-2.99Q200.56-2.16 201.34-2.16L201.34-2.16L201.34-2.16Q202.91-2.16 204.06-3.65L204.06-3.65L204.06-3.65Q205.21-5.15 205.65-7.79L205.65-7.79L208.25-22.15L208.25-22.15Q207.22-23.03 206.02-23.03L206.02-23.03L206.02-23.03Q204.82-23.03 204.11-22.64L204.11-22.64L204.11-22.64Q203.40-22.25 202.84-21.36ZM235.79-17.20L235.79-17.20L235.79-17.20Q236.47-19.01 236.47-20.58L236.47-20.58L236.47-20.58Q236.47-23.47 234.12-23.47L234.12-23.47L234.12-23.47Q232.90-23.47 231.89-22.37L231.89-22.37L231.89-22.37Q230.89-21.27 230.89-19.89L230.89-19.89L230.89-19.89Q230.89-18.91 231.67-18.13L231.67-18.13L231.67-18.13Q232.80-17.05 235.69-15.29L235.69-15.29L235.69-15.29Q238.58-13.52 239.68-12.08L239.68-12.08L239.68-12.08Q240.79-10.63 240.79-8.65L240.79-8.65L240.79-8.65Q240.79-6.66 239.83-4.85L239.83-4.85L239.83-4.85Q238.88-3.04 237.16-1.76L237.16-1.76L237.16-1.76Q233.49 0.98 227.60 0.98L227.60 0.98L227.60 0.98Q224.42 0.98 221.97-0.69L221.97-0.69L221.97-0.69Q219.52-2.30 219.52-4.21L219.52-4.21L219.52-4.21Q219.52-6.13 220.92-7.25L220.92-7.25L220.92-7.25Q222.31-8.38 224.37-8.38L224.37-8.38L224.37-8.38Q226.43-8.38 227.70-7.60L227.70-7.60L227.70-7.60Q227.07-5.98 227.07-4.90L227.07-4.90L227.07-4.90Q227.07-1.67 229.81-1.67L229.81-1.67L229.81-1.67Q230.99-1.67 231.77-2.40L231.77-2.40L231.77-2.40Q232.55-3.14 232.55-4.41L232.55-4.41L232.55-4.41Q232.55-6.91 228.34-9.55L228.34-9.55L228.34-9.55Q224.91-11.81 224.13-12.69L224.13-12.69L224.13-12.69Q222.80-14.26 222.80-16.22L222.80-16.22L222.80-16.22Q222.80-18.18 223.73-20.04L223.73-20.04L223.73-20.04Q224.66-21.90 226.38-23.23L226.38-23.23L226.38-23.23Q229.96-25.97 236.18-25.97L236.18-25.97L236.18-25.97Q239.37-25.97 241.25-24.70L241.25-24.70L241.25-24.70Q243.14-23.42 243.14-21.27L243.14-21.27L243.14-21.27Q243.14-19.11 241.84-17.89L241.84-17.89L241.84-17.89Q240.54-16.66 238.19-16.66L238.19-16.66L238.19-16.66Q236.57-16.66 235.79-17.20Z" fill="#eb6c6c"></path></g></g><style>text {
  font-size: 64px;
  font-family: Arial Black;
  dominant-baseline: central;
  text-anchor: middle;
}</style></svg>